<svg xmlns="http://www.w3.org/2000/svg" width="65" height="65">
    <path fill-rule="evenodd" d="M17.999 0H47c9.941 0 18 8.58 18 17.999V47c0 9.941-8.059 18-18 18H17.999C8.58 65 0 56.941 0 47V17.999C0 8.58 8.58 0 17.999 0z"/>
    <path fill-rule="evenodd" fill="#FFF" d="M35.575 34.186c-4.676 0-8.466-3.778-8.466-8.44 0-3.896 3.79-8.441 8.466-8.441 4.675 0 8.835 4.545 8.835 8.441 0 4.662-4.16 8.44-8.835 8.44zM17.461 17.305h7.385v30.878h-7.385V17.305zm9.648 30.878V32.806l20.025 15.377H27.109z"/>
</svg>
