<svg width="104" height="104" viewBox="0 0 104 104" fill="none" xmlns="http://www.w3.org/2000/svg">
<path d="M68.072 2.536C63.008 0.896 57.608 0 52 0C46.392 0 40.992 0.888 35.928 2.536L52 52L68.072 2.536Z" fill="#FF5959"/>
<path d="M9.928 21.4319C3.688 30.0159 0 40.5759 0 51.9999H52L9.928 21.4319Z" fill="#FF5959"/>
<path d="M35.928 2.53589C25.384 5.95989 16.32 12.6559 9.92798 21.4319L52 51.9999L35.928 2.53589Z" fill="#FF5959"/>
<path d="M94.072 21.4319C87.688 12.6559 78.616 5.95189 68.072 2.53589L52 51.9999L94.072 21.4319Z" fill="#9196A9"/>
<path d="M104 51.9999C104 40.5759 100.312 30.0159 94.072 21.4319L52 51.9999H104Z" fill="#46C7FF"/>
<path d="M68.072 101.464C78.616 98.04 87.68 91.344 94.072 82.568L52 52L68.072 101.464Z" fill="#8957FF"/>
<path d="M52 52L94.072 82.568C100.32 73.992 104 63.424 104 52H52Z" fill="#46C7FF"/>
<path d="M0 52C0 63.424 3.688 73.984 9.928 82.568L52 52H0Z" fill="#8957FF"/>
<path d="M9.92798 82.568C16.312 91.344 25.384 98.048 35.928 101.464L52 52L9.92798 82.568Z" fill="#8957FF"/>
<path d="M35.928 101.464C40.992 103.104 46.392 104 52 104C57.608 104 63.008 103.112 68.072 101.464L52 52L35.928 101.464Z" fill="#8957FF"/>
<path d="M52 76C65.2548 76 76 65.2548 76 52C76 38.7452 65.2548 28 52 28C38.7452 28 28 38.7452 28 52C28 65.2548 38.7452 76 52 76Z" fill="#383B43"/>
<path d="M16.3338 29.127C15.6695 29.127 15.0728 29.0127 14.5438 28.7842C14.0191 28.5557 13.6044 28.2362 13.2997 27.8257C12.9992 27.411 12.8426 26.9391 12.8299 26.4102H14.7596C14.7681 26.6344 14.8421 26.8333 14.9818 27.0068C15.1214 27.1761 15.3098 27.3094 15.5467 27.4067C15.7837 27.5041 16.0503 27.5527 16.3465 27.5527C16.647 27.5527 16.9157 27.4998 17.1527 27.394C17.3939 27.284 17.5801 27.1359 17.7113 26.9497C17.8425 26.7593 17.9081 26.5413 17.9081 26.2959C17.9081 26.0462 17.8382 25.8262 17.6986 25.6357C17.5589 25.4411 17.3579 25.2887 17.0956 25.1787C16.8332 25.0687 16.5243 25.0137 16.1688 25.0137H15.3182V23.6045H16.1688C16.4693 23.6045 16.7359 23.5537 16.9686 23.4521C17.2014 23.3506 17.3812 23.2067 17.5082 23.0205C17.6393 22.8343 17.7049 22.6227 17.7049 22.3857C17.7049 22.153 17.6499 21.9478 17.5399 21.77C17.4299 21.5923 17.2733 21.4548 17.0702 21.3574C16.8713 21.2559 16.6385 21.2051 16.3719 21.2051C16.1011 21.2051 15.8514 21.2537 15.6229 21.3511C15.3944 21.4442 15.2103 21.5775 15.0707 21.751C14.931 21.9245 14.857 22.1276 14.8485 22.3604H13.0204C13.0288 21.8441 13.1791 21.3828 13.4711 20.9766C13.7673 20.5661 14.1672 20.2487 14.6708 20.0244C15.1743 19.7959 15.7372 19.6816 16.3592 19.6816C16.9855 19.6816 17.5399 19.7959 18.0223 20.0244C18.509 20.2529 18.8835 20.564 19.1459 20.9575C19.4125 21.3511 19.5458 21.7891 19.5458 22.2715C19.5458 22.6058 19.4738 22.9105 19.3299 23.1855C19.1861 23.4564 18.9808 23.6807 18.7142 23.8584C18.4518 24.0319 18.1493 24.1504 17.8065 24.2139V24.29C18.4751 24.3704 18.9914 24.6011 19.3553 24.9819C19.7193 25.3628 19.897 25.8431 19.8885 26.4229C19.8928 26.9391 19.7425 27.4046 19.4379 27.8193C19.1374 28.2298 18.7163 28.5514 18.1747 28.7842C17.633 29.0127 17.0194 29.127 16.3338 29.127ZM24.4116 29.127C23.6457 29.127 22.9855 28.9429 22.4312 28.5747C21.8768 28.2023 21.4515 27.6628 21.1553 26.9561C20.8633 26.2493 20.7173 25.3988 20.7173 24.4043C20.7173 23.4141 20.8654 22.5656 21.1616 21.8589C21.4578 21.1479 21.8831 20.6084 22.4375 20.2402C22.9919 19.8678 23.6499 19.6816 24.4116 19.6816C25.1733 19.6816 25.8314 19.8678 26.3857 20.2402C26.9401 20.6084 27.3654 21.1479 27.6616 21.8589C27.9578 22.5656 28.106 23.4141 28.106 24.4043C28.106 25.403 27.9578 26.2557 27.6616 26.9624C27.3654 27.6691 26.9401 28.2065 26.3857 28.5747C25.8356 28.9429 25.1776 29.127 24.4116 29.127ZM22.6724 24.4614C22.6724 25.4771 22.8268 26.2472 23.1357 26.772C23.4447 27.2925 23.87 27.5527 24.4116 27.5527C24.9575 27.5527 25.3849 27.2882 25.6938 26.7593C26.0028 26.2261 26.1551 25.4411 26.1509 24.4043C26.1509 23.7188 26.0811 23.1411 25.9414 22.6714C25.8018 22.1974 25.6007 21.842 25.3384 21.605C25.076 21.368 24.7671 21.2474 24.4116 21.2432C23.8657 21.2474 23.4383 21.5225 23.1294 22.0684C22.8247 22.6143 22.6724 23.4119 22.6724 24.4614ZM31.4484 24.4043C30.9998 24.4043 30.6147 24.3027 30.2931 24.0996C29.9757 23.8923 29.7345 23.6045 29.5695 23.2363C29.4087 22.8682 29.3283 22.4408 29.3283 21.9541C29.3283 21.4674 29.4129 21.04 29.5822 20.6719C29.7514 20.2995 29.9948 20.0096 30.3121 19.8022C30.6295 19.5949 31.0083 19.4912 31.4484 19.4912C31.8969 19.4912 32.2799 19.5949 32.5973 19.8022C32.9147 20.0054 33.1538 20.2931 33.3146 20.6655C33.4796 21.0337 33.5643 21.4632 33.5685 21.9541C33.5643 22.445 33.4796 22.8745 33.3146 23.2427C33.1496 23.6108 32.9083 23.8965 32.591 24.0996C32.2736 24.3027 31.8927 24.4043 31.4484 24.4043ZM30.6232 21.9541C30.6274 22.3604 30.6994 22.682 30.839 22.9189C30.9829 23.1517 31.186 23.2702 31.4484 23.2744C31.715 23.2702 31.9181 23.1517 32.0578 22.9189C32.1974 22.682 32.2693 22.3604 32.2736 21.9541C32.2693 21.5394 32.1995 21.2135 32.0641 20.9766C31.9287 20.7396 31.7234 20.6211 31.4484 20.6211C31.186 20.6253 30.9829 20.748 30.839 20.9893C30.6994 21.2305 30.6274 21.5521 30.6232 21.9541ZM36.9708 19.8086H38.3927L32.0704 29H30.6486L36.9708 19.8086ZM35.5363 26.8545C35.5363 26.3678 35.6188 25.9404 35.7838 25.5723C35.9531 25.1999 36.1964 24.91 36.5138 24.7026C36.8312 24.4953 37.2078 24.3916 37.6437 24.3916C38.0965 24.3916 38.4816 24.4953 38.799 24.7026C39.1206 24.91 39.3618 25.1978 39.5226 25.5659C39.6876 25.9341 39.7723 26.3636 39.7765 26.8545C39.7723 27.3454 39.6876 27.7749 39.5226 28.1431C39.3576 28.5112 39.1142 28.7969 38.7926 29C38.4752 29.2031 38.0923 29.3047 37.6437 29.3047C37.1994 29.3047 36.8185 29.2031 36.5011 29C36.1837 28.7926 35.9425 28.5049 35.7775 28.1367C35.6167 27.7686 35.5363 27.3411 35.5363 26.8545ZM36.8312 26.8545C36.8354 27.2607 36.9074 27.5824 37.047 27.8193C37.1909 28.0563 37.3898 28.1748 37.6437 28.1748C37.9145 28.1748 38.1198 28.0584 38.2594 27.8257C38.4033 27.5887 38.4774 27.265 38.4816 26.8545C38.4774 26.4398 38.4054 26.116 38.2658 25.8833C38.1303 25.6463 37.923 25.5299 37.6437 25.5342C37.3856 25.5299 37.1867 25.6484 37.047 25.8896C36.9074 26.1309 36.8354 26.4525 36.8312 26.8545Z" fill="white"/>
<path d="M67.9969 25H66.0799V17.624H66.0292L63.9217 18.9443V17.2559L66.1942 15.8086H67.9969V25ZM73.3071 25.127C72.5412 25.127 71.881 24.9429 71.3267 24.5747C70.7723 24.2023 70.347 23.6628 70.0508 22.9561C69.7588 22.2493 69.6128 21.3988 69.6128 20.4043C69.6128 19.4141 69.7609 18.5656 70.0571 17.8589C70.3534 17.1479 70.7786 16.6084 71.333 16.2402C71.8874 15.8678 72.5454 15.6816 73.3071 15.6816C74.0688 15.6816 74.7269 15.8678 75.2813 16.2402C75.8356 16.6084 76.2609 17.1479 76.5571 17.8589C76.8534 18.5656 77.0015 19.4141 77.0015 20.4043C77.0015 21.403 76.8534 22.2557 76.5571 22.9624C76.2609 23.6691 75.8356 24.2065 75.2813 24.5747C74.7311 24.9429 74.0731 25.127 73.3071 25.127ZM71.5679 20.4614C71.5679 21.4771 71.7223 22.2472 72.0313 22.772C72.3402 23.2925 72.7655 23.5527 73.3071 23.5527C73.853 23.5527 74.2804 23.2882 74.5894 22.7593C74.8983 22.2261 75.0506 21.4411 75.0464 20.4043C75.0464 19.7188 74.9766 19.1411 74.8369 18.6714C74.6973 18.1974 74.4963 17.842 74.2339 17.605C73.9715 17.368 73.6626 17.2474 73.3071 17.2432C72.7612 17.2474 72.3338 17.5225 72.0249 18.0684C71.7202 18.6143 71.5679 19.4119 71.5679 20.4614ZM80.3439 20.4043C79.8953 20.4043 79.5102 20.3027 79.1886 20.0996C78.8712 19.8923 78.63 19.6045 78.465 19.2363C78.3042 18.8682 78.2238 18.4408 78.2238 17.9541C78.2238 17.4674 78.3084 17.04 78.4777 16.6719C78.6469 16.2995 78.8903 16.0096 79.2077 15.8022C79.525 15.5949 79.9038 15.4912 80.3439 15.4912C80.7925 15.4912 81.1754 15.5949 81.4928 15.8022C81.8102 16.0054 82.0493 16.2931 82.2101 16.6655C82.3751 17.0337 82.4598 17.4632 82.464 17.9541C82.4598 18.445 82.3751 18.8745 82.2101 19.2427C82.0451 19.6108 81.8038 19.8965 81.4865 20.0996C81.1691 20.3027 80.7882 20.4043 80.3439 20.4043ZM79.5187 17.9541C79.5229 18.3604 79.5949 18.682 79.7345 18.9189C79.8784 19.1517 80.0815 19.2702 80.3439 19.2744C80.6105 19.2702 80.8136 19.1517 80.9533 18.9189C81.0929 18.682 81.1649 18.3604 81.1691 17.9541C81.1649 17.5394 81.095 17.2135 80.9596 16.9766C80.8242 16.7396 80.619 16.6211 80.3439 16.6211C80.0815 16.6253 79.8784 16.748 79.7345 16.9893C79.5949 17.2305 79.5229 17.5521 79.5187 17.9541ZM85.8663 15.8086H87.2882L80.966 25H79.5441L85.8663 15.8086ZM84.4318 22.8545C84.4318 22.3678 84.5143 21.9404 84.6793 21.5723C84.8486 21.1999 85.0919 20.91 85.4093 20.7026C85.7267 20.4953 86.1033 20.3916 86.5392 20.3916C86.992 20.3916 87.3771 20.4953 87.6945 20.7026C88.0161 20.91 88.2573 21.1978 88.4181 21.5659C88.5831 21.9341 88.6678 22.3636 88.672 22.8545C88.6678 23.3454 88.5831 23.7749 88.4181 24.1431C88.2531 24.5112 88.0097 24.7969 87.6881 25C87.3707 25.2031 86.9878 25.3047 86.5392 25.3047C86.0949 25.3047 85.714 25.2031 85.3966 25C85.0792 24.7926 84.838 24.5049 84.673 24.1367C84.5122 23.7686 84.4318 23.3411 84.4318 22.8545ZM85.7267 22.8545C85.7309 23.2607 85.8029 23.5824 85.9425 23.8193C86.0864 24.0563 86.2853 24.1748 86.5392 24.1748C86.81 24.1748 87.0153 24.0584 87.1549 23.8257C87.2988 23.5887 87.3729 23.265 87.3771 22.8545C87.3729 22.4398 87.3009 22.116 87.1613 21.8833C87.0259 21.6463 86.8185 21.5299 86.5392 21.5342C86.2811 21.5299 86.0822 21.6484 85.9425 21.8896C85.8029 22.1309 85.7309 22.4525 85.7267 22.8545Z" fill="white"/>
<path d="M82.1112 57H80.1942V49.624H80.1434L78.036 50.9443V49.2559L80.3085 47.8086H82.1112V57ZM87.4214 57.127C86.7443 57.127 86.1265 56.981 85.5679 56.689C85.0135 56.3927 84.5628 55.9103 84.2158 55.2417C83.873 54.5731 83.7017 53.7056 83.7017 52.6392C83.7017 51.6193 83.854 50.737 84.1587 49.9922C84.4676 49.2432 84.9056 48.6719 85.4727 48.2783C86.0439 47.8805 86.7147 47.6816 87.4849 47.6816C88.0858 47.6816 88.6253 47.798 89.1035 48.0308C89.5817 48.2635 89.9647 48.5851 90.2524 48.9956C90.5444 49.4019 90.7222 49.8568 90.7856 50.3604H88.9067C88.8306 50.0387 88.6655 49.7848 88.4116 49.5986C88.1619 49.4124 87.853 49.3193 87.4849 49.3193C86.8713 49.3193 86.3994 49.5796 86.0693 50.1001C85.7435 50.6164 85.5763 51.3337 85.5679 52.252H85.6567C85.8683 51.8457 86.1836 51.5283 86.6025 51.2998C87.0257 51.0713 87.4933 50.957 88.0054 50.957C88.5513 50.957 89.0443 51.084 89.4844 51.3379C89.9245 51.5918 90.2673 51.9451 90.5127 52.3979C90.7624 52.8507 90.8872 53.3607 90.8872 53.9277C90.8872 54.5413 90.7412 55.0915 90.4492 55.5781C90.1615 56.0648 89.7552 56.4456 89.2305 56.7207C88.7057 56.9915 88.1027 57.127 87.4214 57.127ZM85.7583 53.9785C85.7625 54.279 85.8345 54.554 85.9741 54.8037C86.118 55.0534 86.3148 55.2523 86.5645 55.4004C86.8141 55.5443 87.0913 55.6162 87.396 55.6162C87.7049 55.6162 87.9842 55.5464 88.2339 55.4067C88.4836 55.2629 88.6782 55.0661 88.8179 54.8164C88.9618 54.5625 89.0337 54.2832 89.0337 53.9785C89.0337 53.6738 88.9639 53.3988 88.8242 53.1533C88.6846 52.9036 88.492 52.7069 88.2466 52.563C88.0011 52.4149 87.7261 52.3408 87.4214 52.3408C87.1125 52.3408 86.8311 52.4149 86.5771 52.563C86.3275 52.7111 86.1286 52.91 85.9805 53.1597C85.8366 53.4093 85.7625 53.6823 85.7583 53.9785ZM94.2296 52.4043C93.7811 52.4043 93.396 52.3027 93.0744 52.0996C92.757 51.8923 92.5158 51.6045 92.3507 51.2363C92.1899 50.8682 92.1095 50.4408 92.1095 49.9541C92.1095 49.4674 92.1941 49.04 92.3634 48.6719C92.5327 48.2995 92.776 48.0096 93.0934 47.8022C93.4108 47.5949 93.7895 47.4912 94.2296 47.4912C94.6782 47.4912 95.0612 47.5949 95.3786 47.8022C95.6959 48.0054 95.935 48.2931 96.0958 48.6655C96.2609 49.0337 96.3455 49.4632 96.3497 49.9541C96.3455 50.445 96.2609 50.8745 96.0958 51.2427C95.9308 51.6108 95.6896 51.8965 95.3722 52.0996C95.0548 52.3027 94.674 52.4043 94.2296 52.4043ZM93.4044 49.9541C93.4087 50.3604 93.4806 50.682 93.6203 50.9189C93.7641 51.1517 93.9673 51.2702 94.2296 51.2744C94.4962 51.2702 94.6994 51.1517 94.839 50.9189C94.9787 50.682 95.0506 50.3604 95.0548 49.9541C95.0506 49.5394 94.9808 49.2135 94.8454 48.9766C94.7099 48.7396 94.5047 48.6211 94.2296 48.6211C93.9673 48.6253 93.7641 48.748 93.6203 48.9893C93.4806 49.2305 93.4087 49.5521 93.4044 49.9541ZM99.7521 47.8086H101.174L94.8517 57H93.4298L99.7521 47.8086ZM98.3175 54.8545C98.3175 54.3678 98.4 53.9404 98.5651 53.5723C98.7343 53.1999 98.9777 52.91 99.2951 52.7026C99.6124 52.4953 99.9891 52.3916 100.425 52.3916C100.878 52.3916 101.263 52.4953 101.58 52.7026C101.902 52.91 102.143 53.1978 102.304 53.5659C102.469 53.9341 102.554 54.3636 102.558 54.8545C102.554 55.3454 102.469 55.7749 102.304 56.1431C102.139 56.5112 101.895 56.7969 101.574 57C101.256 57.2031 100.874 57.3047 100.425 57.3047C99.9806 57.3047 99.5997 57.2031 99.2824 57C98.965 56.7926 98.7238 56.5049 98.5587 56.1367C98.3979 55.7686 98.3175 55.3411 98.3175 54.8545ZM99.6124 54.8545C99.6167 55.2607 99.6886 55.5824 99.8283 55.8193C99.9721 56.0563 100.171 56.1748 100.425 56.1748C100.696 56.1748 100.901 56.0584 101.041 55.8257C101.185 55.5887 101.259 55.265 101.263 54.8545C101.259 54.4398 101.187 54.116 101.047 53.8833C100.912 53.6463 100.704 53.5299 100.425 53.5342C100.167 53.5299 99.9679 53.6484 99.8283 53.8896C99.6886 54.1309 99.6167 54.4525 99.6124 54.8545Z" fill="white"/>
<path d="M38.6776 89.8643L42.5624 83.8086H44.9618V89.8389H46.1297V91.375H44.9618V93H43.1463V91.375H38.6776V89.8643ZM43.1717 89.8389V85.9033H43.0829L40.6073 89.7627V89.8389H43.1717ZM46.8315 89.8643L50.7163 83.8086H53.1157V89.8389H54.2837V91.375H53.1157V93H51.3003V91.375H46.8315V89.8643ZM51.3257 89.8389V85.9033H51.2368L48.7612 89.7627V89.8389H51.3257ZM57.5499 88.4043C57.1014 88.4043 56.7163 88.3027 56.3947 88.0996C56.0773 87.8923 55.8361 87.6045 55.671 87.2363C55.5102 86.8682 55.4298 86.4408 55.4298 85.9541C55.4298 85.4674 55.5145 85.04 55.6837 84.6719C55.853 84.2995 56.0963 84.0096 56.4137 83.8022C56.7311 83.5949 57.1098 83.4912 57.5499 83.4912C57.9985 83.4912 58.3815 83.5949 58.6989 83.8022C59.0163 84.0054 59.2553 84.2931 59.4162 84.6655C59.5812 85.0337 59.6658 85.4632 59.6701 85.9541C59.6658 86.445 59.5812 86.8745 59.4162 87.2427C59.2511 87.6108 59.0099 87.8965 58.6925 88.0996C58.3751 88.3027 57.9943 88.4043 57.5499 88.4043ZM56.7247 85.9541C56.729 86.3604 56.8009 86.682 56.9406 86.9189C57.0844 87.1517 57.2876 87.2702 57.5499 87.2744C57.8165 87.2702 58.0197 87.1517 58.1593 86.9189C58.299 86.682 58.3709 86.3604 58.3751 85.9541C58.3709 85.5394 58.3011 85.2135 58.1657 84.9766C58.0302 84.7396 57.825 84.6211 57.5499 84.6211C57.2876 84.6253 57.0844 84.748 56.9406 84.9893C56.8009 85.2305 56.729 85.5521 56.7247 85.9541ZM63.0724 83.8086H64.4943L58.172 93H56.7501L63.0724 83.8086ZM61.6378 90.8545C61.6378 90.3678 61.7204 89.9404 61.8854 89.5723C62.0547 89.1999 62.298 88.91 62.6154 88.7026C62.9328 88.4953 63.3094 88.3916 63.7453 88.3916C64.1981 88.3916 64.5831 88.4953 64.9005 88.7026C65.2221 88.91 65.4634 89.1978 65.6242 89.5659C65.7892 89.9341 65.8738 90.3636 65.8781 90.8545C65.8738 91.3454 65.7892 91.7749 65.6242 92.1431C65.4591 92.5112 65.2158 92.7969 64.8942 93C64.5768 93.2031 64.1938 93.3047 63.7453 93.3047C63.3009 93.3047 62.9201 93.2031 62.6027 93C62.2853 92.7926 62.0441 92.5049 61.879 92.1367C61.7182 91.7686 61.6378 91.3411 61.6378 90.8545ZM62.9328 90.8545C62.937 91.2607 63.0089 91.5824 63.1486 91.8193C63.2925 92.0563 63.4913 92.1748 63.7453 92.1748C64.0161 92.1748 64.2213 92.0584 64.361 91.8257C64.5049 91.5887 64.5789 91.265 64.5831 90.8545C64.5789 90.4398 64.507 90.116 64.3673 89.8833C64.2319 89.6463 64.0246 89.5299 63.7453 89.5342C63.4871 89.5299 63.2882 89.6484 63.1486 89.8896C63.0089 90.1309 62.937 90.4525 62.9328 90.8545Z" fill="white"/>
</svg>
