<svg width="104" height="104" viewBox="0 0 104 104" fill="none" xmlns="http://www.w3.org/2000/svg">
<path d="M68.072 2.536C63.008 0.896 57.608 0 52 0C46.392 0 40.992 0.888 35.928 2.536L52 52L68.072 2.536Z" fill="#8957FF"/>
<path d="M9.928 21.432C3.688 30.016 0 40.576 0 52H52L9.928 21.432Z" fill="#FF5959"/>
<path d="M35.928 2.53601C25.384 5.96001 16.32 12.656 9.92798 21.432L52 52L35.928 2.53601Z" fill="#FF5959"/>
<path d="M94.072 21.432C87.688 12.656 78.616 5.95201 68.072 2.53601L52 52L94.072 21.432Z" fill="#46C7FF"/>
<path d="M104 52C104 40.576 100.312 30.016 94.072 21.432L52 52H104Z" fill="#46C7FF"/>
<path d="M68.072 101.464C78.616 98.04 87.68 91.344 94.072 82.568L52 52L68.072 101.464Z" fill="#46C7FF"/>
<path d="M52 52L94.072 82.568C100.32 73.992 104 63.424 104 52H52Z" fill="#46C7FF"/>
<path d="M0 52C0 63.424 3.688 73.984 9.928 82.568L52 52H0Z" fill="#46C7FF"/>
<path d="M9.92798 82.568C16.312 91.344 25.384 98.048 35.928 101.464L52 52L9.92798 82.568Z" fill="#46C7FF"/>
<path d="M35.928 101.464C40.992 103.104 46.392 104 52 104C57.608 104 63.008 103.112 68.072 101.464L52 52L35.928 101.464Z" fill="#46C7FF"/>
<path d="M52 76C65.2548 76 76 65.2548 76 52C76 38.7452 65.2548 28 52 28C38.7452 28 28 38.7452 28 52C28 65.2548 38.7452 76 52 76Z" fill="#383B43"/>
<path d="M9.10289 31.6162L12.4037 28.582C12.7295 28.2689 12.9813 28.0107 13.159 27.8076C13.341 27.6003 13.4807 27.395 13.578 27.1919C13.6753 26.9845 13.724 26.7624 13.724 26.5254C13.724 26.2588 13.6605 26.026 13.5336 25.8271C13.4108 25.624 13.2373 25.4696 13.013 25.3638C12.793 25.258 12.5433 25.2051 12.264 25.2051C11.8282 25.2008 11.4811 25.3278 11.223 25.5859C10.9649 25.8398 10.8379 26.1868 10.8421 26.627H9.02672C9.02672 26.0387 9.16214 25.5225 9.43297 25.0781C9.70803 24.6296 10.091 24.2847 10.5819 24.0435C11.077 23.8022 11.6462 23.6816 12.2894 23.6816C12.9369 23.6816 13.5082 23.798 14.0033 24.0308C14.4984 24.2593 14.8814 24.5788 15.1522 24.9893C15.4273 25.3997 15.5648 25.8695 15.5648 26.3984C15.5648 26.7624 15.495 27.1115 15.3553 27.4458C15.2157 27.7759 14.9724 28.144 14.6254 28.5503C14.2826 28.9565 13.7959 29.4453 13.1654 30.0166L11.7689 31.375V31.4258H15.6918V33H9.11559L9.10289 31.6162ZM20.2275 33.127C19.4616 33.127 18.8014 32.9429 18.2471 32.5747C17.6927 32.2023 17.2674 31.6628 16.9712 30.9561C16.6792 30.2493 16.5332 29.3988 16.5332 28.4043C16.5332 27.4141 16.6813 26.5656 16.9775 25.8589C17.2738 25.1479 17.6991 24.6084 18.2534 24.2402C18.8078 23.8678 19.4658 23.6816 20.2275 23.6816C20.9893 23.6816 21.6473 23.8678 22.2017 24.2402C22.756 24.6084 23.1813 25.1479 23.4775 25.8589C23.7738 26.5656 23.9219 27.4141 23.9219 28.4043C23.9219 29.403 23.7738 30.2557 23.4775 30.9624C23.1813 31.6691 22.756 32.2065 22.2017 32.5747C21.6515 32.9429 20.9935 33.127 20.2275 33.127ZM18.4883 28.4614C18.4883 29.4771 18.6427 30.2472 18.9517 30.772C19.2606 31.2925 19.6859 31.5527 20.2275 31.5527C20.7734 31.5527 21.2008 31.2882 21.5098 30.7593C21.8187 30.2261 21.971 29.4411 21.9668 28.4043C21.9668 27.7188 21.897 27.1411 21.7573 26.6714C21.6177 26.1974 21.4167 25.842 21.1543 25.605C20.8919 25.368 20.583 25.2474 20.2275 25.2432C19.6816 25.2474 19.2542 25.5225 18.9453 26.0684C18.6406 26.6143 18.4883 27.4119 18.4883 28.4614ZM27.2643 28.4043C26.8157 28.4043 26.4306 28.3027 26.109 28.0996C25.7916 27.8923 25.5504 27.6045 25.3854 27.2363C25.2246 26.8682 25.1442 26.4408 25.1442 25.9541C25.1442 25.4674 25.2288 25.04 25.3981 24.6719C25.5674 24.2995 25.8107 24.0096 26.1281 23.8022C26.4454 23.5949 26.8242 23.4912 27.2643 23.4912C27.7129 23.4912 28.0958 23.5949 28.4132 23.8022C28.7306 24.0054 28.9697 24.2931 29.1305 24.6655C29.2955 25.0337 29.3802 25.4632 29.3844 25.9541C29.3802 26.445 29.2955 26.8745 29.1305 27.2427C28.9655 27.6108 28.7243 27.8965 28.4069 28.0996C28.0895 28.3027 27.7086 28.4043 27.2643 28.4043ZM26.4391 25.9541C26.4433 26.3604 26.5153 26.682 26.6549 26.9189C26.7988 27.1517 27.0019 27.2702 27.2643 27.2744C27.5309 27.2702 27.734 27.1517 27.8737 26.9189C28.0133 26.682 28.0853 26.3604 28.0895 25.9541C28.0853 25.5394 28.0154 25.2135 27.88 24.9766C27.7446 24.7396 27.5394 24.6211 27.2643 24.6211C27.0019 24.6253 26.7988 24.748 26.6549 24.9893C26.5153 25.2305 26.4433 25.5521 26.4391 25.9541ZM32.7868 23.8086H34.2086L27.8864 33H26.4645L32.7868 23.8086ZM31.3522 30.8545C31.3522 30.3678 31.4347 29.9404 31.5997 29.5723C31.769 29.1999 32.0123 28.91 32.3297 28.7026C32.6471 28.4953 33.0237 28.3916 33.4596 28.3916C33.9124 28.3916 34.2975 28.4953 34.6149 28.7026C34.9365 28.91 35.1777 29.1978 35.3385 29.5659C35.5036 29.9341 35.5882 30.3636 35.5924 30.8545C35.5882 31.3454 35.5036 31.7749 35.3385 32.1431C35.1735 32.5112 34.9302 32.7969 34.6085 33C34.2912 33.2031 33.9082 33.3047 33.4596 33.3047C33.0153 33.3047 32.6344 33.2031 32.317 33C31.9996 32.7926 31.7584 32.5049 31.5934 32.1367C31.4326 31.7686 31.3522 31.3411 31.3522 30.8545ZM32.6471 30.8545C32.6513 31.2607 32.7233 31.5824 32.8629 31.8193C33.0068 32.0563 33.2057 32.1748 33.4596 32.1748C33.7304 32.1748 33.9357 32.0584 34.0753 31.8257C34.2192 31.5887 34.2933 31.265 34.2975 30.8545C34.2933 30.4398 34.2213 30.116 34.0817 29.8833C33.9463 29.6463 33.7389 29.5299 33.4596 29.5342C33.2015 29.5299 33.0026 29.6484 32.8629 29.8896C32.7233 30.1309 32.6513 30.4525 32.6471 30.8545Z" fill="white"/>
<path d="M42.9969 17H41.0799V9.62402H41.0292L38.9217 10.9443V9.25586L41.1942 7.80859H42.9969V17ZM48.3071 17.127C47.5412 17.127 46.881 16.9429 46.3267 16.5747C45.7723 16.2023 45.347 15.6628 45.0508 14.9561C44.7588 14.2493 44.6128 13.3988 44.6128 12.4043C44.6128 11.4141 44.7609 10.5656 45.0571 9.85889C45.3534 9.14795 45.7786 8.6084 46.333 8.24023C46.8874 7.86784 47.5454 7.68164 48.3071 7.68164C49.0688 7.68164 49.7269 7.86784 50.2813 8.24023C50.8356 8.6084 51.2609 9.14795 51.5571 9.85889C51.8534 10.5656 52.0015 11.4141 52.0015 12.4043C52.0015 13.403 51.8534 14.2557 51.5571 14.9624C51.2609 15.6691 50.8356 16.2065 50.2813 16.5747C49.7311 16.9429 49.0731 17.127 48.3071 17.127ZM46.5679 12.4614C46.5679 13.4771 46.7223 14.2472 47.0313 14.772C47.3402 15.2925 47.7655 15.5527 48.3071 15.5527C48.853 15.5527 49.2804 15.2882 49.5894 14.7593C49.8983 14.2261 50.0506 13.4411 50.0464 12.4043C50.0464 11.7188 49.9766 11.1411 49.8369 10.6714C49.6973 10.1974 49.4963 9.84196 49.2339 9.60498C48.9715 9.368 48.6626 9.2474 48.3071 9.24316C47.7612 9.2474 47.3338 9.52246 47.0249 10.0684C46.7202 10.6143 46.5679 11.4119 46.5679 12.4614ZM55.3439 12.4043C54.8953 12.4043 54.5102 12.3027 54.1886 12.0996C53.8712 11.8923 53.63 11.6045 53.465 11.2363C53.3042 10.8682 53.2238 10.4408 53.2238 9.9541C53.2238 9.46745 53.3084 9.04004 53.4777 8.67188C53.6469 8.29948 53.8903 8.0096 54.2077 7.80225C54.525 7.59489 54.9038 7.49121 55.3439 7.49121C55.7925 7.49121 56.1754 7.59489 56.4928 7.80225C56.8102 8.00537 57.0493 8.29313 57.2101 8.66553C57.3751 9.03369 57.4598 9.46322 57.464 9.9541C57.4598 10.445 57.3751 10.8745 57.2101 11.2427C57.0451 11.6108 56.8038 11.8965 56.4865 12.0996C56.1691 12.3027 55.7882 12.4043 55.3439 12.4043ZM54.5187 9.9541C54.5229 10.3604 54.5949 10.682 54.7345 10.9189C54.8784 11.1517 55.0815 11.2702 55.3439 11.2744C55.6105 11.2702 55.8136 11.1517 55.9533 10.9189C56.0929 10.682 56.1649 10.3604 56.1691 9.9541C56.1649 9.53939 56.095 9.21354 55.9596 8.97656C55.8242 8.73958 55.619 8.62109 55.3439 8.62109C55.0815 8.62533 54.8784 8.74805 54.7345 8.98926C54.5949 9.23047 54.5229 9.55208 54.5187 9.9541ZM60.8663 7.80859H62.2882L55.966 17H54.5441L60.8663 7.80859ZM59.4318 14.8545C59.4318 14.3678 59.5143 13.9404 59.6793 13.5723C59.8486 13.1999 60.0919 12.91 60.4093 12.7026C60.7267 12.4953 61.1033 12.3916 61.5392 12.3916C61.992 12.3916 62.3771 12.4953 62.6945 12.7026C63.0161 12.91 63.2573 13.1978 63.4181 13.5659C63.5831 13.9341 63.6678 14.3636 63.672 14.8545C63.6678 15.3454 63.5831 15.7749 63.4181 16.1431C63.2531 16.5112 63.0097 16.7969 62.6881 17C62.3707 17.2031 61.9878 17.3047 61.5392 17.3047C61.0949 17.3047 60.714 17.2031 60.3966 17C60.0792 16.7926 59.838 16.5049 59.673 16.1367C59.5122 15.7686 59.4318 15.3411 59.4318 14.8545ZM60.7267 14.8545C60.7309 15.2607 60.8029 15.5824 60.9425 15.8193C61.0864 16.0563 61.2853 16.1748 61.5392 16.1748C61.81 16.1748 62.0153 16.0584 62.1549 15.8257C62.2988 15.5887 62.3729 15.265 62.3771 14.8545C62.3729 14.4398 62.3009 14.116 62.1613 13.8833C62.0259 13.6463 61.8185 13.5299 61.5392 13.5342C61.2811 13.5299 61.0822 13.6484 60.9425 13.8896C60.8029 14.1309 60.7309 14.4525 60.7267 14.8545Z" fill="white"/>
<path d="M73.1732 73.4336V73.3701H68.6664V71.8086H75.1537V73.3955L71.2816 81H69.3011L73.1732 73.4336ZM79.3975 81.127C78.6315 81.127 77.9714 80.9429 77.417 80.5747C76.8626 80.2023 76.4373 79.6628 76.1411 78.9561C75.8491 78.2493 75.7031 77.3988 75.7031 76.4043C75.7031 75.4141 75.8512 74.5656 76.1475 73.8589C76.4437 73.1479 76.869 72.6084 77.4233 72.2402C77.9777 71.8678 78.6357 71.6816 79.3975 71.6816C80.1592 71.6816 80.8172 71.8678 81.3716 72.2402C81.9259 72.6084 82.3512 73.1479 82.6475 73.8589C82.9437 74.5656 83.0918 75.4141 83.0918 76.4043C83.0918 77.403 82.9437 78.2557 82.6475 78.9624C82.3512 79.6691 81.9259 80.2065 81.3716 80.5747C80.8215 80.9429 80.1634 81.127 79.3975 81.127ZM77.6582 76.4614C77.6582 77.4771 77.8127 78.2472 78.1216 78.772C78.4305 79.2925 78.8558 79.5527 79.3975 79.5527C79.9434 79.5527 80.3708 79.2882 80.6797 78.7593C80.9886 78.2261 81.141 77.4411 81.1367 76.4043C81.1367 75.7188 81.0669 75.1411 80.9272 74.6714C80.7876 74.1974 80.5866 73.842 80.3242 73.605C80.0618 73.368 79.7529 73.2474 79.3975 73.2432C78.8516 73.2474 78.4242 73.5225 78.1152 74.0684C77.8105 74.6143 77.6582 75.4119 77.6582 76.4614ZM86.4342 76.4043C85.9857 76.4043 85.6006 76.3027 85.2789 76.0996C84.9616 75.8923 84.7204 75.6045 84.5553 75.2363C84.3945 74.8682 84.3141 74.4408 84.3141 73.9541C84.3141 73.4674 84.3987 73.04 84.568 72.6719C84.7373 72.2995 84.9806 72.0096 85.298 71.8022C85.6154 71.5949 85.9941 71.4912 86.4342 71.4912C86.8828 71.4912 87.2658 71.5949 87.5831 71.8022C87.9005 72.0054 88.1396 72.2931 88.3004 72.6655C88.4655 73.0337 88.5501 73.4632 88.5543 73.9541C88.5501 74.445 88.4655 74.8745 88.3004 75.2427C88.1354 75.6108 87.8942 75.8965 87.5768 76.0996C87.2594 76.3027 86.8786 76.4043 86.4342 76.4043ZM85.609 73.9541C85.6133 74.3604 85.6852 74.682 85.8248 74.9189C85.9687 75.1517 86.1718 75.2702 86.4342 75.2744C86.7008 75.2702 86.9039 75.1517 87.0436 74.9189C87.1832 74.682 87.2552 74.3604 87.2594 73.9541C87.2552 73.5394 87.1854 73.2135 87.0499 72.9766C86.9145 72.7396 86.7093 72.6211 86.4342 72.6211C86.1718 72.6253 85.9687 72.748 85.8248 72.9893C85.6852 73.2305 85.6133 73.5521 85.609 73.9541ZM91.9567 71.8086H93.3786L87.0563 81H85.6344L91.9567 71.8086ZM90.5221 78.8545C90.5221 78.3678 90.6046 77.9404 90.7697 77.5723C90.9389 77.1999 91.1823 76.91 91.4996 76.7026C91.817 76.4953 92.1937 76.3916 92.6295 76.3916C93.0823 76.3916 93.4674 76.4953 93.7848 76.7026C94.1064 76.91 94.3476 77.1978 94.5084 77.5659C94.6735 77.9341 94.7581 78.3636 94.7623 78.8545C94.7581 79.3454 94.6735 79.7749 94.5084 80.1431C94.3434 80.5112 94.1001 80.7969 93.7785 81C93.4611 81.2031 93.0781 81.3047 92.6295 81.3047C92.1852 81.3047 91.8043 81.2031 91.487 81C91.1696 80.7926 90.9284 80.5049 90.7633 80.1367C90.6025 79.7686 90.5221 79.3411 90.5221 78.8545ZM91.817 78.8545C91.8213 79.2607 91.8932 79.5824 92.0329 79.8193C92.1767 80.0563 92.3756 80.1748 92.6295 80.1748C92.9004 80.1748 93.1056 80.0584 93.2453 79.8257C93.3891 79.5887 93.4632 79.265 93.4674 78.8545C93.4632 78.4398 93.3913 78.116 93.2516 77.8833C93.1162 77.6463 92.9088 77.5299 92.6295 77.5342C92.3714 77.5299 92.1725 77.6484 92.0329 77.8896C91.8932 78.1309 91.8213 78.4525 91.817 78.8545Z" fill="white"/>
</svg>
