<svg width="20" height="20" viewBox="0 0 20 20" fill="none" xmlns="http://www.w3.org/2000/svg">
<g clip-path="url(#clip0_34_2070)">
<path d="M15.4908 12.4509L12.9886 11.6727C12.0382 11.3746 11.3922 10.5091 11.3922 9.53457V9.3673C12.1421 9.05457 12.6693 8.3273 12.6693 7.47639V4.7782C12.6693 3.64366 11.7337 2.72729 10.5755 2.72729H9.41716C8.25887 2.72729 7.32333 3.64366 7.32333 4.7782V7.47639C7.32333 8.3273 7.8505 9.05457 8.60042 9.3673V9.53457C8.60042 10.5091 7.95445 11.3746 7.00406 11.6727L4.50186 12.4509C3.44009 12.7855 2.72729 13.7455 2.72729 14.8364V17.2727H17.2727V14.8364C17.2727 13.7455 16.5525 12.7855 15.4982 12.4509H15.4908Z" fill="white"/>
</g>
<defs>
<clipPath id="clip0_34_2070">
<rect width="14.5455" height="14.5455" fill="white" transform="translate(2.72729 2.72729)"/>
</clipPath>
</defs>
</svg>
