<svg width="32" height="34" viewBox="0 0 32 34" fill="none" xmlns="http://www.w3.org/2000/svg">
<path d="M16 34C7.18 34 0 26.7388 0 17.8192C0 8.89946 7.18 1.63831 16 1.63831C18.57 1.63831 21.03 2.23497 23.31 3.4182L22.36 5.279C20.38 4.24747 18.24 3.7317 16 3.7317C8.32 3.7317 2.07 10.0523 2.07 17.8192C2.07 25.586 8.32 31.9066 16 31.9066C23.68 31.9066 29.93 25.586 29.93 17.8192H32C32 26.7388 24.82 34 16 34Z" fill="white"/>
<path d="M18.7 7.07912L18.29 5.02617L22.05 4.27781L21.08 0.53599L23.08 0L24.62 5.8959L18.7 7.07912Z" fill="white"/>
<path d="M16.1099 20.7317C14.4899 20.7317 13.1799 19.3968 13.1799 17.7686C13.1799 16.1404 14.4999 14.8055 16.1099 14.8055C17.7199 14.8055 19.0399 16.1404 19.0399 17.7686C19.0399 19.3968 17.7199 20.7317 16.1099 20.7317ZM16.1099 16.8989C15.6399 16.8989 15.2499 17.2933 15.2499 17.7686C15.2499 18.2439 15.6399 18.6383 16.1099 18.6383C16.5799 18.6383 16.9699 18.2439 16.9699 17.7686C16.9699 17.2933 16.5799 16.8989 16.1099 16.8989Z" fill="white"/>
<path d="M9.66678 12.5943L8.59106 14.3829L13.6746 17.5098L14.7503 15.7213L9.66678 12.5943Z" fill="white"/>
<path d="M23.6663 10.1083L17.3169 15.8233L18.6931 17.387L25.0425 11.672L23.6663 10.1083Z" fill="white"/>
<path d="M6.02001 16.9798H4.26001V18.6585H6.02001V16.9798Z" fill="white"/>
<path d="M28.01 16.9798H26.25V18.6585H28.01V16.9798Z" fill="white"/>
<path d="M17.15 28.0535H15.49V29.8334H17.15V28.0535Z" fill="white"/>
</svg>
