<svg width="20" height="20" viewBox="0 0 20 20" fill="none" xmlns="http://www.w3.org/2000/svg">
<g clip-path="url(#clip0_34_2062)">
<path d="M6.54468 4.54556L6.54468 12.6125H3.63655L3.63655 4.54556H6.54468Z" fill="white"/>
<path d="M17.2729 9.5837C17.2729 10.1435 16.8172 10.5885 16.2602 10.5885C16.8244 10.5885 17.2729 11.0406 17.2729 11.5933C17.2729 12.1459 16.8172 12.5981 16.2602 12.5981H11.5941L12.1946 16.8971C12.3248 17.4497 11.9848 18.0095 11.4278 18.1387C10.8707 18.2679 10.3065 17.9306 10.1762 17.378L7.91919 12.5981V4.53106H16.2529C16.8172 4.53106 17.2657 4.98322 17.2657 5.53585C17.2657 6.08848 16.81 6.54063 16.2529 6.54063C16.8172 6.54063 17.2657 6.99279 17.2657 7.54542C17.2657 8.09805 16.81 8.5502 16.2529 8.5502C16.8172 8.5502 17.2657 9.00236 17.2657 9.55499L17.2729 9.5837Z" fill="white"/>
</g>
<defs>
<clipPath id="clip0_34_2062">
<rect width="13.6364" height="13.6364" fill="white" transform="matrix(1 0 0 -1 3.63647 18.1819)"/>
</clipPath>
</defs>
</svg>
