<svg width="30" height="30" viewBox="0 0 30 30" fill="none" xmlns="http://www.w3.org/2000/svg">
<g clip-path="url(#clip0_85_13)">
<path d="M9.81665 23.1818V11.0813H5.45446L5.45446 23.1818H9.81665Z" fill="white"/>
<path d="M25.909 15.6243C25.909 14.7846 25.2254 14.1172 24.3899 14.1172C25.2363 14.1172 25.909 13.4389 25.909 12.61C25.909 11.781 25.2254 11.1028 24.3899 11.1028H17.3908L18.2915 4.65424C18.4868 3.82529 17.9768 2.98558 17.1413 2.7918C16.3057 2.59802 15.4593 3.104 15.264 3.93294L11.8784 11.1028V23.2033H24.379C25.2254 23.2033 25.8982 22.5251 25.8982 21.6961C25.8982 20.8672 25.2146 20.1889 24.379 20.1889C25.2254 20.1889 25.8982 19.5107 25.8982 18.6817C25.8982 17.8528 25.2146 17.1746 24.379 17.1746C25.2254 17.1746 25.8982 16.4963 25.8982 15.6674L25.909 15.6243Z" fill="white"/>
</g>
<defs>
<clipPath id="clip0_85_13">
<rect width="20.4545" height="20.4545" fill="white" transform="translate(5.45447 2.72729)"/>
</clipPath>
</defs>
</svg>
