<svg width="17" height="17" viewBox="0 0 17 17" fill="none" xmlns="http://www.w3.org/2000/svg">
<g clip-path="url(#clip0_29_727)">
<path d="M4.85718 12.1429L12.3551 4.64494" stroke="white" stroke-width="1.6" stroke-linejoin="round"/>
<path d="M3.77933 9.2014L1.48965 11.4911C0.550441 12.4303 0.550442 13.953 1.48965 14.8923L2.10653 15.5091C3.04574 16.4483 4.56849 16.4483 5.5077 15.5091L7.79738 13.2195C8.73659 12.2802 8.73659 10.7575 7.79738 9.81828L7.1805 9.2014C6.24129 8.26219 4.71854 8.26219 3.77933 9.2014Z" stroke="white" stroke-width="1.6" stroke-linejoin="round"/>
<path d="M13.2263 7.799L15.516 5.50933C16.4552 4.57012 16.4552 3.04736 15.516 2.10815L14.8991 1.49127C13.9599 0.552064 12.4371 0.552063 11.4979 1.49127L9.20823 3.78095C8.26903 4.72016 8.26903 6.24292 9.20823 7.18212L9.82511 7.799C10.7643 8.73821 12.2871 8.73821 13.2263 7.799Z" stroke="white" stroke-width="1.6" stroke-linejoin="round"/>
</g>
<defs>
<clipPath id="clip0_29_727">
<rect width="17" height="17" fill="white"/>
</clipPath>
</defs>
</svg>
