<svg width="104" height="104" viewBox="0 0 104 104" fill="none" xmlns="http://www.w3.org/2000/svg">
<path d="M68.072 2.536C63.008 0.896 57.608 0 52 0C46.392 0 40.992 0.888 35.928 2.536L52 52L68.072 2.536Z" fill="#FF5959"/>
<path d="M9.928 21.432C3.688 30.016 0 40.576 0 52H52L9.928 21.432Z" fill="#FF5959"/>
<path d="M35.928 2.53601C25.384 5.96001 16.32 12.656 9.92798 21.432L52 52L35.928 2.53601Z" fill="#FF5959"/>
<path d="M94.072 21.432C87.688 12.656 78.616 5.95201 68.072 2.53601L52 52L94.072 21.432Z" fill="#46C7FF"/>
<path d="M104 52C104 40.576 100.312 30.016 94.072 21.432L52 52H104Z" fill="#46C7FF"/>
<path d="M68.072 101.464C78.616 98.04 87.68 91.344 94.072 82.568L52 52L68.072 101.464Z" fill="#46C7FF"/>
<path d="M52 52L94.072 82.568C100.32 73.992 104 63.424 104 52H52Z" fill="#46C7FF"/>
<path d="M0 52C0 63.424 3.688 73.984 9.928 82.568L52 52H0Z" fill="#46C7FF"/>
<path d="M9.92798 82.568C16.312 91.344 25.384 98.048 35.928 101.464L52 52L9.92798 82.568Z" fill="#46C7FF"/>
<path d="M35.928 101.464C40.992 103.104 46.392 104 52 104C57.608 104 63.008 103.112 68.072 101.464L52 52L35.928 101.464Z" fill="#46C7FF"/>
<path d="M52 76C65.2548 76 76 65.2548 76 52C76 38.7452 65.2548 28 52 28C38.7452 28 28 38.7452 28 52C28 65.2548 38.7452 76 52 76Z" fill="#35373F"/>
<path d="M24.5518 23.1367C23.8363 23.1367 23.1938 23.0137 22.6241 22.7676C22.059 22.5215 21.6124 22.1774 21.2843 21.7354C20.9607 21.2887 20.7921 20.7806 20.7784 20.2109H22.8565C22.8656 20.4525 22.9454 20.6667 23.0958 20.8535C23.2462 21.0358 23.449 21.1794 23.7042 21.2842C23.9594 21.389 24.2465 21.4414 24.5655 21.4414C24.8891 21.4414 25.1785 21.3844 25.4337 21.2705C25.6934 21.152 25.894 20.9925 26.0352 20.792C26.1765 20.5869 26.2471 20.3522 26.2471 20.0879C26.2471 19.819 26.172 19.582 26.0216 19.377C25.8712 19.1673 25.6547 19.0033 25.3721 18.8848C25.0896 18.7663 24.7569 18.707 24.3741 18.707H23.4581V17.1895H24.3741C24.6977 17.1895 24.9848 17.1348 25.2354 17.0254C25.4861 16.916 25.6798 16.7611 25.8165 16.5605C25.9578 16.36 26.0284 16.1322 26.0284 15.877C26.0284 15.6263 25.9692 15.4053 25.8507 15.2139C25.7322 15.0225 25.5636 14.8743 25.3448 14.7695C25.1306 14.6602 24.88 14.6055 24.5929 14.6055C24.3012 14.6055 24.0323 14.6579 23.7862 14.7627C23.5401 14.863 23.3419 15.0065 23.1915 15.1934C23.0411 15.3802 22.9613 15.599 22.9522 15.8496H20.9835C20.9926 15.2936 21.1544 14.7969 21.4688 14.3594C21.7878 13.9173 22.2185 13.5755 22.7608 13.334C23.3031 13.0879 23.9093 12.9648 24.5792 12.9648C25.2537 12.9648 25.8507 13.0879 26.3702 13.334C26.8943 13.5801 27.2976 13.915 27.5802 14.3389C27.8673 14.7627 28.0108 15.2344 28.0108 15.7539C28.0108 16.1139 27.9333 16.4421 27.7784 16.7383C27.6235 17.0299 27.4024 17.2715 27.1153 17.4629C26.8328 17.6497 26.5069 17.7773 26.1378 17.8457V17.9277C26.8578 18.0143 27.4138 18.2627 27.8057 18.6729C28.1977 19.083 28.3891 19.6003 28.38 20.2246C28.3845 20.7806 28.2227 21.2819 27.8946 21.7285C27.571 22.1706 27.1176 22.5169 26.5343 22.7676C25.9509 23.0137 25.2901 23.1367 24.5518 23.1367ZM33.251 23.1367C32.4261 23.1367 31.7152 22.9385 31.1182 22.542C30.5212 22.141 30.0632 21.5599 29.7441 20.7988C29.4297 20.0378 29.2725 19.1217 29.2725 18.0508C29.2725 16.9844 29.432 16.0706 29.751 15.3096C30.07 14.5439 30.528 13.9629 31.125 13.5664C31.722 13.1654 32.4307 12.9648 33.251 12.9648C34.0713 12.9648 34.7799 13.1654 35.377 13.5664C35.974 13.9629 36.432 14.5439 36.751 15.3096C37.07 16.0706 37.2295 16.9844 37.2295 18.0508C37.2295 19.1263 37.07 20.0446 36.751 20.8057C36.432 21.5667 35.974 22.1455 35.377 22.542C34.7845 22.9385 34.0758 23.1367 33.251 23.1367ZM31.3779 18.1123C31.3779 19.2061 31.5443 20.0355 31.877 20.6006C32.2096 21.1611 32.6676 21.4414 33.251 21.4414C33.8389 21.4414 34.2992 21.1566 34.6318 20.5869C34.9645 20.0127 35.1286 19.1673 35.124 18.0508C35.124 17.3125 35.0488 16.6904 34.8984 16.1846C34.748 15.6742 34.5316 15.2913 34.249 15.0361C33.9665 14.7809 33.6338 14.651 33.251 14.6465C32.6631 14.651 32.2028 14.9473 31.8701 15.5352C31.542 16.123 31.3779 16.9821 31.3779 18.1123ZM40.829 18.0508C40.346 18.0508 39.9312 17.9414 39.5849 17.7227C39.2431 17.4993 38.9833 17.1895 38.8056 16.793C38.6324 16.3965 38.5458 15.9362 38.5458 15.4121C38.5458 14.888 38.637 14.4277 38.8193 14.0312C39.0015 13.6302 39.2636 13.318 39.6054 13.0947C39.9472 12.8714 40.3551 12.7598 40.829 12.7598C41.3121 12.7598 41.7245 12.8714 42.0663 13.0947C42.4081 13.3135 42.6656 13.6234 42.8388 14.0244C43.0165 14.4209 43.1077 14.8835 43.1122 15.4121C43.1077 15.9408 43.0165 16.4033 42.8388 16.7998C42.6611 17.1963 42.4013 17.5039 42.0595 17.7227C41.7177 17.9414 41.3075 18.0508 40.829 18.0508ZM39.9404 15.4121C39.9449 15.8496 40.0224 16.196 40.1728 16.4512C40.3277 16.7018 40.5465 16.8294 40.829 16.834C41.1161 16.8294 41.3349 16.7018 41.4853 16.4512C41.6357 16.196 41.7131 15.8496 41.7177 15.4121C41.7131 14.9655 41.6379 14.6146 41.4921 14.3594C41.3463 14.1042 41.1252 13.9766 40.829 13.9766C40.5465 13.9811 40.3277 14.1133 40.1728 14.373C40.0224 14.6328 39.9449 14.9792 39.9404 15.4121ZM46.7763 13.1016H48.3075L41.4989 23H39.9677L46.7763 13.1016ZM45.2314 20.6895C45.2314 20.1654 45.3202 19.7051 45.498 19.3086C45.6803 18.9076 45.9423 18.5954 46.2841 18.3721C46.6259 18.1488 47.0315 18.0371 47.5009 18.0371C47.9885 18.0371 48.4032 18.1488 48.745 18.3721C49.0914 18.5954 49.3512 18.9053 49.5243 19.3018C49.7021 19.6982 49.7932 20.1608 49.7978 20.6895C49.7932 21.2181 49.7021 21.6807 49.5243 22.0771C49.3466 22.4736 49.0846 22.7812 48.7382 23C48.3964 23.2188 47.984 23.3281 47.5009 23.3281C47.0224 23.3281 46.6122 23.2188 46.2704 23C45.9286 22.7767 45.6689 22.4668 45.4911 22.0703C45.318 21.6738 45.2314 21.2135 45.2314 20.6895ZM46.6259 20.6895C46.6305 21.127 46.7079 21.4733 46.8583 21.7285C47.0133 21.9837 47.2275 22.1113 47.5009 22.1113C47.7926 22.1113 48.0136 21.986 48.164 21.7354C48.3189 21.4801 48.3987 21.1315 48.4032 20.6895C48.3987 20.2428 48.3212 19.8942 48.1708 19.6436C48.025 19.3883 47.8017 19.263 47.5009 19.2676C47.2229 19.263 47.0087 19.3906 46.8583 19.6504C46.7079 19.9102 46.6305 20.2565 46.6259 20.6895Z" fill="white"/>
<path d="M59.4942 81.8516V81.7832H54.6407V80.1016H61.627V81.8105L57.4571 90H55.3243L59.4942 81.8516ZM66.1973 90.1367C65.3724 90.1367 64.6615 89.9385 64.0645 89.542C63.4674 89.141 63.0094 88.5599 62.6904 87.7988C62.376 87.0378 62.2188 86.1217 62.2188 85.0508C62.2188 83.9844 62.3783 83.0706 62.6973 82.3096C63.0163 81.5439 63.4743 80.9629 64.0713 80.5664C64.6683 80.1654 65.377 79.9648 66.1973 79.9648C67.0176 79.9648 67.7262 80.1654 68.3232 80.5664C68.9202 80.9629 69.3783 81.5439 69.6973 82.3096C70.0163 83.0706 70.1758 83.9844 70.1758 85.0508C70.1758 86.1263 70.0163 87.0446 69.6973 87.8057C69.3783 88.5667 68.9202 89.1455 68.3232 89.542C67.7308 89.9385 67.0221 90.1367 66.1973 90.1367ZM64.3242 85.1123C64.3242 86.2061 64.4906 87.0355 64.8232 87.6006C65.1559 88.1611 65.6139 88.4414 66.1973 88.4414C66.7852 88.4414 67.2454 88.1566 67.5781 87.5869C67.9108 87.0127 68.0749 86.1673 68.0703 85.0508C68.0703 84.3125 67.9951 83.6904 67.8447 83.1846C67.6943 82.6742 67.4779 82.2913 67.1953 82.0361C66.9128 81.7809 66.5801 81.651 66.1973 81.6465C65.6094 81.651 65.1491 81.9473 64.8164 82.5352C64.4883 83.123 64.3242 83.9821 64.3242 85.1123ZM73.7753 85.0508C73.2922 85.0508 72.8775 84.9414 72.5312 84.7227C72.1894 84.4993 71.9296 84.1895 71.7519 83.793C71.5787 83.3965 71.4921 82.9362 71.4921 82.4121C71.4921 81.888 71.5833 81.4277 71.7655 81.0312C71.9478 80.6302 72.2099 80.318 72.5517 80.0947C72.8935 79.8714 73.3014 79.7598 73.7753 79.7598C74.2584 79.7598 74.6708 79.8714 75.0126 80.0947C75.3544 80.3135 75.6119 80.6234 75.7851 81.0244C75.9628 81.4209 76.054 81.8835 76.0585 82.4121C76.054 82.9408 75.9628 83.4033 75.7851 83.7998C75.6073 84.1963 75.3476 84.5039 75.0058 84.7227C74.664 84.9414 74.2538 85.0508 73.7753 85.0508ZM72.8866 82.4121C72.8912 82.8496 72.9687 83.196 73.1191 83.4512C73.274 83.7018 73.4928 83.8294 73.7753 83.834C74.0624 83.8294 74.2812 83.7018 74.4316 83.4512C74.582 83.196 74.6594 82.8496 74.664 82.4121C74.6594 81.9655 74.5842 81.6146 74.4384 81.3594C74.2926 81.1042 74.0715 80.9766 73.7753 80.9766C73.4928 80.9811 73.274 81.1133 73.1191 81.373C72.9687 81.6328 72.8912 81.9792 72.8866 82.4121ZM79.7226 80.1016H81.2538L74.4452 90H72.914L79.7226 80.1016ZM78.1777 87.6895C78.1777 87.1654 78.2665 86.7051 78.4443 86.3086C78.6265 85.9076 78.8886 85.5954 79.2304 85.3721C79.5722 85.1488 79.9778 85.0371 80.4472 85.0371C80.9348 85.0371 81.3495 85.1488 81.6913 85.3721C82.0377 85.5954 82.2974 85.9053 82.4706 86.3018C82.6484 86.6982 82.7395 87.1608 82.7441 87.6895C82.7395 88.2181 82.6484 88.6807 82.4706 89.0771C82.2929 89.4736 82.0308 89.7812 81.6845 90C81.3427 90.2188 80.9303 90.3281 80.4472 90.3281C79.9687 90.3281 79.5585 90.2188 79.2167 90C78.8749 89.7767 78.6152 89.4668 78.4374 89.0703C78.2642 88.6738 78.1777 88.2135 78.1777 87.6895ZM79.5722 87.6895C79.5767 88.127 79.6542 88.4733 79.8046 88.7285C79.9596 88.9837 80.1737 89.1113 80.4472 89.1113C80.7389 89.1113 80.9599 88.986 81.1103 88.7354C81.2652 88.4801 81.345 88.1315 81.3495 87.6895C81.345 87.2428 81.2675 86.8942 81.1171 86.6436C80.9713 86.3883 80.748 86.263 80.4472 86.2676C80.1692 86.263 79.955 86.3906 79.8046 86.6504C79.6542 86.9102 79.5767 87.2565 79.5722 87.6895Z" fill="white"/>
</svg>
