<svg width="20" height="20" viewBox="0 0 20 20" fill="none" xmlns="http://www.w3.org/2000/svg">
<g clip-path="url(#clip0_34_2054)">
<path d="M6.54468 15.4544L6.54468 7.38745H3.63655L3.63655 15.4544H6.54468Z" fill="white"/>
<path d="M17.2729 10.4163C17.2729 9.85649 16.8172 9.41152 16.2602 9.41152C16.8244 9.41152 17.2729 8.95937 17.2729 8.40673C17.2729 7.8541 16.8172 7.40195 16.2602 7.40195H11.5941L12.1946 3.10291C12.3248 2.55027 11.9848 1.99047 11.4278 1.86128C10.8707 1.73209 10.3065 2.06941 10.1762 2.62204L7.91919 7.40195V15.4689H16.2529C16.8172 15.4689 17.2657 15.0168 17.2657 14.4642C17.2657 13.9115 16.81 13.4594 16.2529 13.4594C16.8172 13.4594 17.2657 13.0072 17.2657 12.4546C17.2657 11.9019 16.81 11.4498 16.2529 11.4498C16.8172 11.4498 17.2657 10.9976 17.2657 10.445L17.2729 10.4163Z" fill="white"/>
</g>
<defs>
<clipPath id="clip0_34_2054">
<rect width="13.6364" height="13.6364" fill="white" transform="translate(3.63647 1.81812)"/>
</clipPath>
</defs>
</svg>
